<?xml version="1.0" standalone="no"?>
<!DOCTYPE svg PUBLIC "-//W3C//DTD SVG 20010904//EN"
 "http://www.w3.org/TR/2001/REC-SVG-20010904/DTD/svg10.dtd">
<svg version="1.0" xmlns="http://www.w3.org/2000/svg"
 width="392.000000pt" height="313.000000pt" viewBox="0 0 392.000000 313.000000"
 preserveAspectRatio="xMidYMid meet">

<g transform="translate(0.000000,313.000000) scale(0.100000,-0.100000)"
fill="#000000" stroke="none">
<path d="M0 1777 c0 -745 3 -1449 7 -1565 l6 -212 1954 0 1953 0 0 1565 0
1565 -1960 0 -1960 0 0 -1353z m2908 726 c5 -10 15 -52 22 -93 15 -88 26 -120
40 -120 22 0 176 -108 214 -150 48 -53 93 -149 108 -229 6 -33 10 -63 7 -65
-2 -2 -68 -6 -146 -10 l-141 -7 -11 53 c-22 101 -93 167 -193 181 -96 13 -232
-45 -329 -142 -157 -157 -202 -384 -113 -580 22 -51 35 -65 122 -126 133 -95
192 -118 316 -123 73 -3 114 0 162 13 l64 17 0 109 0 109 -130 0 -131 0 3 108
3 107 260 -3 260 -3 3 -276 c2 -211 -1 -279 -10 -291 -23 -28 -157 -110 -207
-127 l-49 -16 -7 -90 c-6 -69 -11 -91 -24 -97 -9 -4 -61 -7 -116 -7 l-99 0
-31 109 -30 109 -88 23 c-48 13 -96 28 -106 33 -15 8 -34 -4 -106 -69 -49 -44
-92 -80 -97 -80 -13 0 -189 150 -195 167 -14 36 12 68 87 108 51 27 75 46 74
58 0 9 -1 74 -2 143 l-2 125 -95 44 c-92 43 -95 45 -95 77 0 32 4 35 95 81
l95 47 0 158 0 159 -81 38 c-64 30 -88 47 -115 84 -18 25 -34 54 -34 65 0 21
157 186 177 186 8 0 54 -27 103 -60 l90 -61 73 35 c39 19 84 38 100 41 31 8
32 11 47 144 6 52 13 98 16 103 3 4 57 8 119 8 99 0 115 -2 123 -17z m-1795
-1053 c87 -264 162 -480 166 -480 4 0 79 216 166 480 l159 480 226 -1 225 0
60 -33 60 -32 3 -87 3 -87 -88 -43 -88 -42 -3 -110 -3 -111 91 -44 90 -44 0
-73 0 -73 -90 -45 -91 -46 2 -111 1 -111 89 -40 89 -41 0 -71 0 -71 -85 -42
c-47 -23 -85 -46 -85 -52 0 -6 -58 -10 -155 -10 l-155 0 0 308 c0 276 10 543
25 675 14 117 -11 52 -239 -615 l-101 -298 -105 0 -105 0 -112 328 c-210 614
-218 638 -221 614 -2 -13 1 -94 8 -180 6 -86 14 -293 17 -460 l6 -302 -151 0
-152 0 0 675 0 675 193 0 192 0 158 -480z"/>
</g>
</svg>
